<?xml version="1.0" encoding="utf-8"?>
<!-- Generator: Adobe Illustrator 24.0.2, SVG Export Plug-In . SVG Version: 6.00 Build 0)  -->
<svg version="1.1" id="Layer_1" xmlns="http://www.w3.org/2000/svg" xmlns:xlink="http://www.w3.org/1999/xlink" x="0px" y="0px"
	 viewBox="0 0 10 10" style="enable-background:new 0 0 10 10;" xml:space="preserve">
<style type="text/css">
	.st0{fill:url(#SVGID_1_);stroke:#3F003F;stroke-width:0.5;stroke-linejoin:round;stroke-miterlimit:10;}
	.st1{fill:none;stroke:#3F003F;stroke-width:0.5;stroke-linejoin:round;stroke-miterlimit:10;}
	.st2{fill:none;stroke:#3F003F;stroke-width:0.5;stroke-linecap:round;stroke-linejoin:round;stroke-miterlimit:10;}
	.st3{fill:url(#SVGID_2_);stroke:#3F003F;stroke-width:0.5;stroke-linecap:round;stroke-linejoin:round;stroke-miterlimit:10;}
</style>
<linearGradient id="SVGID_1_" gradientUnits="userSpaceOnUse" x1="5" y1="8" x2="5" y2="1">
	<stop  offset="0" style="stop-color:#D4145A"/>
	<stop  offset="0.3869" style="stop-color:#FF4E50"/>
</linearGradient>
<path class="st0" d="M2,4L2,4c0-1.7,1.3-3,3-3l0,0c1.7,0,3,1.3,3,3v0v4H2V4z"/>
<polyline class="st1" points="3,10 3,6 4,6 5,7 3,7 "/>
<polyline class="st1" points="7,10 7,6 5,6 6,7 7,7 "/>
<path class="st2" d="M3,3.5L3,3.5C3,2.7,3.7,2,4.5,2h0"/>
<linearGradient id="SVGID_2_" gradientUnits="userSpaceOnUse" x1="5" y1="9" x2="5" y2="8">
	<stop  offset="0.8291" style="stop-color:#D4145A"/>
	<stop  offset="1" style="stop-color:#FF4E50"/>
</linearGradient>
<rect x="1" y="8" class="st3" width="8" height="1"/>
</svg>
